<?xml version="1.0" encoding="utf-8"?><svg xmlns="http://www.w3.org/2000/svg" xmlns:xlink="http://www.w3.org/1999/xlink" width="1526" height="783" preserveAspectRatio="xMidYMid" viewBox="0 0 1526 783" style="z-index:1;margin-right:-2px;display:block;background-color:rgb(255, 255, 255);animation-play-state:paused" ><g transform="translate(763,391.5) scale(1,1) translate(-763,-391.5)" style="transform:matrix(1, 0, 0, 1, 0, 0);animation-play-state:paused" ><g transform="translate(1163.6343222896285,38.29333273063753) scale(100)" opacity="0.55" style="transform:matrix(100, 0, 0, 100, 1163.63, 38.2933);opacity:0.55;animation-play-state:paused" ><path d="M4.993835000000001 0 C4.993835000000001 2.02958 5.940885390917511 1.086414660987178 4.926095390917512 2.8440824999999994 S4.254585339012822 3.309997972307862 2.496917500000001 4.324787972307862 S2.0295800000000006 5.688165 3.482996530136002e-16 5.688165 S-0.7392496609871781 5.339577972307863 -2.4969174999999995 4.324787972307863 S-3.9113053909175095 4.601750339012822 -4.92609539091751 2.8440825000000016 S-4.993835000000001 2.0295800000000006 -4.993835000000001 6.115684048220023e-16 S-5.940885390917511 -1.0864146609871765 -4.926095390917512 -2.844082499999998 S-4.254585339012824 -3.3099979723078605 -2.4969175000000026 -4.3247879723078615 S-2.029580000000001 -5.688165 -1.0448989590408006e-15 -5.688165 S0.7392496609871753 -5.339577972307864 2.4969174999999972 -4.324787972307865 S3.911305390917509 -4.601750339012823 4.92609539091751 -2.8440825000000025 S4.993835 -2.0295800000000015 4.993835000000001 -1.2231368096440046e-15" fill="#cde7fa" stroke-width="0" transform="matrix(1,0,0,1,0,0)" style="transform:matrix(1, 0, 0, 1, 0, 0);animation-play-state:paused" ></path></g>
<g transform="translate(1243.7611867475541,-32.34800072323492) scale(100)" opacity="0.55" style="transform:matrix(100, 0, 0, 100, 1243.76, -32.348);opacity:0.55;animation-play-state:paused" ><path d="M5.992602 0 C5.992602 2.4354959999999997 7.1290624691010125 1.303697593184614 5.911314469101013 3.412898999999999 S5.1055024068153845 3.971997566769434 2.9963010000000003 5.189745566769434 S2.435496 6.825797999999999 4.179595836163202e-16 6.825797999999999 S-0.8870995931846135 6.407493566769434 -2.9963009999999985 5.189745566769434 S-4.693566469101011 5.522100406815387 -5.911314469101011 3.4128990000000017 S-5.992602 2.4354960000000005 -5.992602 7.338820857864026e-16 S-7.129062469101013 -1.3036975931846122 -5.911314469101014 -3.4128989999999977 S-5.105502406815386 -3.9719975667694314 -2.9963010000000025 -5.1897455667694325 S-2.435496000000001 -6.825797999999998 -1.2538787508489605e-15 -6.825797999999999 S0.88709959318461 -6.4074935667694355 2.996300999999996 -5.189745566769437 S4.69356646910101 -5.522100406815387 5.911314469101011 -3.4128990000000026 S5.992601999999999 -2.435496000000001 5.992602 -1.4677641715728053e-15" fill="#cde7fa" stroke-width="0" transform="matrix(1,0,0,1,0,0)" style="transform:matrix(1, 0, 0, 1, 0, 0);animation-play-state:paused" ></path></g>
<g transform="translate(1436.0656614465756,-201.88720101252886) scale(100)" opacity="0.55" style="transform:matrix(100, 0, 0, 100, 1436.07, -201.887);opacity:0.55;animation-play-state:paused" ><path d="M8.389642799999999 0 C8.389642799999999 3.4096943999999993 9.980687456741418 1.8251766304584591 8.275840256741418 4.778058599999998 S7.147703369541539 5.560796593477207 4.1948214 7.265643793477207 S3.4096944 9.556117199999997 5.851434170628482e-16 9.556117199999997 S-1.241939430458459 8.970490993477208 -4.194821399999998 7.265643793477208 S-6.570993056741416 7.7309405695415405 -8.275840256741416 4.778058600000002 S-8.389642799999999 3.4096944000000002 -8.389642799999999 1.0274349201009637e-15 S-9.980687456741418 -1.825176630458457 -8.275840256741418 -4.778058599999996 S-7.14770336954154 -5.560796593477204 -4.194821400000003 -7.265643793477206 S-3.409694400000001 -9.556117199999997 -1.7554302511885445e-15 -9.556117199999997 S1.2419394304584541 -8.970490993477208 4.194821399999994 -7.265643793477211 S6.570993056741413 -7.730940569541541 8.275840256741414 -4.778058600000003 S8.389642799999999 -3.4096944000000016 8.389642799999999 -2.0548698402019273e-15" fill="#cde7fa" stroke-width="0" transform="matrix(1,0,0,1,0,0)" style="transform:matrix(1, 0, 0, 1, 0, 0);animation-play-state:paused" ></path></g></g></svg>